<?xml version="1.0" encoding="UTF-8" standalone="no"?>
<!-- Created with Inkscape (http://www.inkscape.org/) -->

<svg
   xmlns:dc="http://purl.org/dc/elements/1.1/"
   xmlns:cc="http://creativecommons.org/ns#"
   xmlns:rdf="http://www.w3.org/1999/02/22-rdf-syntax-ns#"
   xmlns:svg="http://www.w3.org/2000/svg"
   xmlns="http://www.w3.org/2000/svg"
   xmlns:sodipodi="http://sodipodi.sourceforge.net/DTD/sodipodi-0.dtd"
   xmlns:inkscape="http://www.inkscape.org/namespaces/inkscape"
   width="210mm"
   height="297mm"
   viewBox="0 0 210 297"
   version="1.1"
   id="svg8"
   inkscape:version="0.92.3 (2405546, 2018-03-11)"
   sodipodi:docname="logo.svg">
  <defs
     id="defs2" />
  <sodipodi:namedview
     id="base"
     pagecolor="#ffffff"
     bordercolor="#666666"
     borderopacity="1.0"
     inkscape:pageopacity="0.0"
     inkscape:pageshadow="2"
     inkscape:zoom="0.35"
     inkscape:cx="-64.285714"
     inkscape:cy="560"
     inkscape:document-units="mm"
     inkscape:current-layer="layer1"
     showgrid="false"
     inkscape:window-width="1920"
     inkscape:window-height="1018"
     inkscape:window-x="-8"
     inkscape:window-y="-8"
     inkscape:window-maximized="1" />
  <metadata
     id="metadata5">
    <rdf:RDF>
      <cc:Work
         rdf:about="">
        <dc:format>image/svg+xml</dc:format>
        <dc:type
           rdf:resource="http://purl.org/dc/dcmitype/StillImage" />
        <dc:title></dc:title>
      </cc:Work>
    </rdf:RDF>
  </metadata>
  <g
     inkscape:label="Layer 1"
     inkscape:groupmode="layer"
     id="layer1">
    <path
       style="fill:#007236;fill-opacity:1;stroke-width:0.35277778"
       d="m 73.680157,145.63315 v -43.92084 h 36.865283 36.86527 v 43.92084 43.92083 H 110.54544 73.680157 Z m 71.174353,-0.79375 -0.0896,-41.89237 -34.13124,-0.09 -34.131253,-0.09 v 41.98232 41.98231 h 34.220893 34.22087 z m -66.088473,39.45231 c -0.0808,-0.0808 -0.14699,-17.90053 -0.14699,-39.59931 v -39.45232 h 31.927913 31.9279 l -0.0897,39.51493 -0.0897,39.51491 -31.6912,0.0844 c -17.430163,0.0464 -31.757343,0.0182 -31.838193,-0.0626 z m 8.37333,-4.15959 c 0.96683,-0.96683 0.97266,-3.11417 0.0111,-4.07577 -0.44618,-0.44618 -1.3471,-0.77253 -2.41653,-0.87537 l -1.70513,-0.16396 0.0649,2.94695 c 0.0357,1.62082 0.0754,2.97507 0.0882,3.00943 0.0128,0.0344 0.74591,0.0217 1.62914,-0.0282 1.05733,-0.0597 1.85266,-0.33744 2.32834,-0.81312 z m -2.5231,-2.04342 c 0,-1.77861 0.11594,-2.29305 0.51676,-2.29305 1.10693,0 1.74786,3.23871 0.8238,4.16277 -0.97391,0.97391 -1.34056,0.46254 -1.34056,-1.86972 z m 6.45805,1.76389 c -0.25006,-1.54094 0.32612,-1.62663 1.18306,-0.17594 0.34399,0.58234 0.90717,1.14821 1.25151,1.2575 0.71868,0.2281 1.58047,-0.17357 1.09057,-0.5083 -0.17748,-0.12126 -0.58809,-0.60841 -0.91247,-1.08254 -0.53616,-0.78368 -0.53951,-0.9176 -0.0368,-1.47305 1.22677,-1.35557 -0.22607,-2.76514 -2.86029,-2.77511 l -1.41111,-0.005 0.0726,2.91055 c 0.0399,1.6008 0.0796,2.95024 0.0882,2.99875 0.009,0.0485 0.40251,0.0882 0.87538,0.0882 0.78557,0 0.84247,-0.10655 0.65939,-1.23472 z m -0.10805,-2.99861 c 0,-0.94664 0.11524,-1.09104 0.79375,-0.99468 0.58142,0.0826 0.79375,0.34866 0.79375,0.99468 0,0.64602 -0.21233,0.9121 -0.79375,0.99467 -0.67851,0.0964 -0.79375,-0.048 -0.79375,-0.99467 z m 8.93083,3.82293 c 1.481583,-0.7891 2.051453,-2.37282 1.433373,-3.98352 -0.26762,-0.69739 -1.943203,-1.6033 -2.965483,-1.6033 -0.95361,0 -2.81261,1.83644 -2.81261,2.77848 0,2.3919 2.31594,3.88888 4.34472,2.80834 z m -1.97258,-0.34259 c -0.45902,-0.25689 -0.60825,-0.80907 -0.60825,-2.25074 0,-1.58438 0.12741,-1.97852 0.74671,-2.30996 1.28318,-0.68673 1.87816,0.41856 1.76179,3.27281 -0.0462,1.13214 -1.01057,1.78577 -1.90025,1.28789 z m 9.645503,0.3878 c 0.3913,-0.20941 0.68236,-0.73609 0.68236,-1.23472 0,-0.6787 -0.18282,-0.86953 -0.83302,-0.86953 -0.69722,0 -0.80568,0.14306 -0.66527,0.87755 0.20155,1.05432 -0.57253,1.47727 -1.64914,0.90109 -0.58898,-0.31521 -0.73312,-0.73177 -0.73312,-2.11864 0,-2.59996 1.34036,-3.61131 2.82222,-2.12945 0.87535,0.87536 1.05833,0.88298 1.05833,0.0441 0,-0.65011 -1.18717,-1.10243 -2.89345,-1.10243 -1.08086,0 -2.75099,1.89204 -2.75099,3.1165 0,2.04991 2.99506,3.56825 4.96208,2.51553 z m 6.16519,-0.13116 c 0.5211,-0.38104 0.722,-1.0777 0.86473,-2.99861 0.13608,-1.83149 0.0709,-2.50226 -0.24315,-2.50226 -0.28791,0 -0.46316,0.84139 -0.53271,2.55764 -0.10126,2.49853 -0.12607,2.56022 -1.07378,2.66926 l -0.97014,0.11163 v -2.66927 c 0,-2.54426 -0.0377,-2.66926 -0.80528,-2.66926 -0.77654,0 -0.8006,0.0913 -0.67404,2.55764 0.13906,2.71001 0.56508,3.43958 2.00849,3.43958 0.4109,0 1.05255,-0.22336 1.42588,-0.49635 z m 7.16623,-0.37436 c 0.113,-0.59302 0.052,-0.62767 -0.41813,-0.2375 -0.92473,0.76746 -2.16073,0.36568 -2.2884,-0.74387 -0.12552,-1.09092 0.4194,-1.29007 0.96532,-0.35278 0.28721,0.49312 0.35958,0.33339 0.35958,-0.79375 0,-1.12714 -0.0724,-1.28687 -0.35958,-0.79375 -0.54923,0.94297 -1.03008,0.73712 -1.03008,-0.44097 0,-0.86916 0.14503,-1.05833 0.81139,-1.05833 0.44626,0 1.00189,0.1905 1.23472,0.42333 0.32926,0.32926 0.42334,0.25086 0.42334,-0.35278 0,-0.70555 -0.17639,-0.77611 -1.94028,-0.77611 h -1.94028 v 3.01621 3.01622 l 2.02504,-0.1058 c 1.68822,-0.0882 2.04706,-0.22129 2.15736,-0.80012 z m 3.32683,-0.40811 c -0.24888,-1.53368 0.16418,-1.5052 1.51566,0.10452 0.78305,0.93267 1.26066,1.22868 1.70645,1.05762 0.55957,-0.21473 0.52996,-0.34342 -0.30819,-1.3395 -0.84282,-1.00165 -0.87774,-1.15665 -0.38353,-1.70275 1.25686,-1.38881 0.41782,-2.40832 -2.24116,-2.72324 l -1.80124,-0.21333 v 3.00366 c 0,2.94115 0.0178,3.00365 0.85261,3.00365 0.77138,0 0.8342,-0.11344 0.6594,-1.19063 z m -0.1009,-2.95451 c 0,-0.94664 0.11524,-1.09104 0.79375,-0.99468 0.58142,0.0826 0.79375,0.34866 0.79375,0.99468 0,0.64602 -0.21233,0.9121 -0.79375,0.99467 -0.67851,0.0964 -0.79375,-0.048 -0.79375,-0.99467 z m 6.81594,1.13128 c 0.0623,-2.88233 0.0509,-2.92413 -0.76799,-2.82222 -0.79469,0.0989 -0.83035,0.22357 -0.81139,2.83747 0.0109,1.50371 0.0278,2.82444 0.0375,2.93495 0.01,0.11051 0.34637,0.15019 0.74816,0.0882 0.66494,-0.10261 0.73619,-0.37537 0.79375,-3.03839 z m 2.70906,2.19776 c 0,-0.80772 0.12244,-0.89249 1.14653,-0.79375 0.87875,0.0847 1.17286,0.29593 1.25926,0.90429 0.0828,0.58275 0.34847,0.79375 0.99953,0.79375 0.48775,0 0.8339,-0.12896 0.76922,-0.28657 -1.4811,-3.60939 -2.27055,-5.3558 -2.42148,-5.35672 -0.17964,-0.001 -2.81139,5.12195 -2.81139,5.47274 0,0.0938 0.23812,0.17055 0.52917,0.17055 0.33274,0 0.52916,-0.33566 0.52916,-0.90429 z m 0.70556,-1.72072 c 0,-0.74634 0.59715,-0.98854 0.84498,-0.34272 0.30172,0.78627 0.27767,0.85107 -0.31582,0.85107 -0.29104,0 -0.52916,-0.22876 -0.52916,-0.50835 z m -13.64679,-7.4111 c 2.57942,-0.91993 3.8698,-2.80809 3.8698,-5.6625 0,-3.65458 -1.59372,-5.1767 -5.54941,-5.30005 -2.86182,-0.0892 -3.37082,-0.26739 -3.37082,-1.17973 0,-1.3753 0.90718,-1.98689 2.94717,-1.98689 1.66871,0 2.09793,-0.14638 3.02049,-1.03014 1.48658,-1.42405 2.27761,-3.65204 2.06867,-5.82652 -0.15361,-1.59863 -0.11279,-1.72429 0.46048,-1.41748 0.34596,0.18515 0.7856,0.33664 0.97696,0.33664 0.54444,0 0.82391,-1.89417 0.43168,-2.9258 -0.34152,-0.89829 -0.39554,-0.91435 -1.50553,-0.44763 -1.09137,0.45888 -1.21205,0.43074 -2.31844,-0.54069 -0.8738,-0.7672 -1.52313,-1.02476 -2.5835,-1.02476 -2.2207,0 -3.43497,0.83544 -4.4561,3.06588 -1.14807,2.50771 -0.9993,5.42249 0.38342,7.51192 l 0.89905,1.35857 -1.41922,1.52834 c -1.27823,1.37653 -1.40164,1.66851 -1.24228,2.93945 0.12046,0.96079 0.49715,1.69727 1.18036,2.30777 l 1.00344,0.89666 -1.15805,1.08197 c -0.94689,0.88469 -1.15804,1.34733 -1.15804,2.53736 0,3.22634 3.76393,5.11717 7.51987,3.77763 z m -3.19132,-1.14804 c -0.94491,-0.18252 -2.21189,-1.69756 -2.21189,-2.64495 0,-0.78908 0.63624,-2.10548 1.19934,-2.48147 0.21349,-0.14255 1.43512,-0.26161 2.71473,-0.26458 2.65409,-0.006 3.49426,0.55699 3.49426,2.34213 0,1.17903 -1.01457,2.32728 -2.5806,2.92063 -1.01291,0.38378 -1.23617,0.39473 -2.61584,0.12824 z m 0.32483,-15.09238 c -1.35187,-1.71864 -1.31737,-7.54957 0.0528,-8.91973 0.33967,-0.33966 0.84306,-0.44614 1.42212,-0.3008 1.04933,0.26336 1.44552,1.62493 1.4496,4.98178 0.003,2.47516 -0.30803,3.79224 -1.07724,4.56145 -0.75181,0.75181 -1.04192,0.70113 -1.84727,-0.3227 z m -32.424943,14.89945 c 1.45456,-1.38233 2.63593,-4.37855 3.08328,-7.81994 0.17866,-1.37435 0.32973,-7.60795 0.33572,-13.85246 l 0.0109,-11.35366 0.97013,-0.11162 c 0.69463,-0.0799 1.00216,-0.33705 1.08287,-0.90538 0.11134,-0.7839 0.0621,-0.79375 -3.96875,-0.79375 h -4.08148 v 0.88195 c 0,0.67782 0.18371,0.88319 0.79375,0.88734 0.43657,0.003 0.97004,0.12204 1.1855,0.26459 0.42345,0.28015 0.96962,27.60402 0.59759,29.89655 -0.26394,1.6265 -0.91115,1.5576 -1.69489,-0.18043 -1.00435,-2.22723 -2.64583,-1.73486 -2.64583,0.79363 0,3.3784 2.04818,4.46282 4.33121,2.29318 z m 14.980643,-8.95595 c 0.43506,-0.27146 1.22642,-1.32413 1.75858,-2.33929 0.883,-1.68444 0.96802,-2.18485 0.97287,-5.72629 0.005,-3.65037 -0.0575,-3.99565 -1.05303,-5.82083 -3.264253,-5.98446 -9.158123,-2.94234 -9.626783,4.96887 -0.41003,6.92147 3.72037,11.55551 7.948363,8.91754 z m -3.999543,-1.57567 c -0.57942,-0.63977 -0.68907,-1.42707 -0.79561,-5.71275 -0.13461,-5.41484 0.21419,-7.3968 1.41483,-8.03936 1.13275,-0.60623 2.33454,0.21682 2.83786,1.94349 0.660993,2.2676 0.529133,8.97589 -0.21472,10.92364 -0.53143,1.39154 -0.7624,1.62702 -1.59584,1.62702 -0.54227,0 -1.27255,-0.32912 -1.64652,-0.74204 z m 36.687223,2.01419 c 1.27459,-0.53256 3.03379,-2.56808 3.03379,-3.51031 0,-0.7789 -0.57635,-0.73691 -1.66763,0.12149 -1.22472,0.96336 -2.08657,0.88618 -3.26514,-0.29238 -1.09194,-1.09195 -1.76498,-3.02859 -1.76804,-5.08748 -0.002,-1.51919 -0.0779,-1.49579 4.33006,-1.34041 l 2.74454,0.0967 -0.22432,-1.53893 c -0.4796,-3.2903 -2.51591,-5.94601 -4.55919,-5.94601 -1.28256,0 -2.80784,1.26401 -3.86365,3.20184 -2.01776,3.70338 -1.56629,10.37666 0.89138,13.1758 0.92388,1.05223 1.38264,1.29994 2.8954,1.56334 0.15175,0.0264 0.80551,-0.17324 1.4528,-0.44369 z m -2.52246,-11.75181 c -1.27879,-0.1655 -1.39903,-0.58061 -0.67201,-2.31987 1.09057,-2.60898 2.6792,-2.46444 3.37713,0.30727 0.2274,0.90308 0.36629,1.68913 0.30865,1.74677 -0.25119,0.25119 -1.96136,0.40204 -3.01377,0.26583 z m -19.49096,10.83243 c 0,-0.44424 -0.23519,-0.70555 -0.635,-0.70555 -1.31475,0 -1.48185,-0.67685 -1.47627,-5.97959 0.006,-5.51312 0.23104,-6.53437 1.22251,-5.5429 1.21518,1.21518 2.29987,0.43169 2.29987,-1.66126 0,-1.41999 -0.76627,-2.69125 -1.62218,-2.69125 -0.24998,0 -0.85887,0.67468 -1.3531,1.4993 l -0.8986,1.49931 -0.003,-1.85208 c -0.004,-2.07253 -0.42852,-2.35923 -1.22201,-0.8248 -0.29217,0.56501 -1.04588,1.43007 -1.6749,1.92235 l -1.14366,0.89505 0.78389,0.83442 c 0.73865,0.78626 0.7839,1.14228 0.7839,6.16777 0,5.02353 -0.041,5.34636 -0.70556,5.55729 -0.38805,0.12316 -0.70555,0.53074 -0.70555,0.90572 0,0.62335 0.27208,0.68178 3.175,0.68178 2.93981,0 3.175,-0.0523 3.175,-0.70556 z m -5.65605,-18.91798 c 1.90492,-1.60289 2.60647,-3.43165 2.62196,-6.83479 0.0197,-4.32958 -0.8763,-5.80981 -4.91578,-8.12098 -1.45977,-0.8352 -2.1464,-1.48801 -2.52952,-2.40495 -0.967853,-2.3164 0.0815,-4.9963 1.95647,-4.9963 0.90807,0 2.52408,1.22341 2.52766,1.91357 0.006,1.10351 0.79935,3.02531 1.24934,3.02531 0.39989,0 0.51258,-0.54798 0.51258,-2.49263 0,-1.37095 -0.15544,-2.78307 -0.34541,-3.13805 -0.19791,-0.36981 -1.07639,-0.82077 -2.05723,-1.05607 -3.28864,-0.78893 -5.656213,1.03712 -6.488333,5.00429 -0.3156,1.50458 -0.31241,2.39771 0.0137,3.85517 0.60015,2.68174 1.49719,3.96033 3.837763,5.4701 1.12247,0.72404 2.47543,1.70966 3.00659,2.19028 2.38921,2.16184 1.10672,6.74748 -1.8871,6.74748 -1.40079,0 -2.40628,-1.02015 -3.136593,-3.18234 -0.38025,-1.12581 -0.89078,-1.98175 -1.22261,-2.04984 -0.49454,-0.10147 -0.55615,0.27075 -0.46681,2.82001 l 0.10292,2.9369 1.23473,0.60263 c 0.679093,0.33145 2.055973,0.61026 3.059733,0.61958 1.47025,0.0136 2.03903,-0.16313 2.92589,-0.90937 z m 8.68834,-0.27154 1.19786,-1.19787 0.44256,0.90074 c 0.69386,1.41222 1.5056,1.7597 2.34218,1.0026 0.7826,-0.70823 1.29011,-2.44075 0.89992,-3.07209 -0.17372,-0.28108 -0.35796,-0.21618 -0.59653,0.21011 -0.69361,1.23943 -0.95747,-0.33504 -0.96289,-5.7457 -0.005,-5.32446 -0.0174,-5.40794 -0.91417,-6.30467 -0.7893,-0.78929 -1.1238,-0.88453 -2.5445,-0.72439 -1.33284,0.15023 -1.87861,0.44476 -2.94749,1.59065 -0.72853,0.78104 -1.49084,2.07132 -1.71452,2.90199 -0.53367,1.9819 -0.0685,2.4605 1.38533,1.42528 0.82612,-0.58825 1.08551,-1.0435 1.08551,-1.90515 0,-2.19427 1.96151,-3.60299 2.8098,-2.01795 0.20086,0.3753 0.36519,1.56001 0.36519,2.63269 v 1.95033 l -2.08389,1.41514 c -2.88657,1.96024 -3.56054,2.90834 -3.56054,5.00872 0,3.20692 2.50931,4.21644 4.79618,1.92957 z m -1.75983,-1.47683 c -0.54947,-1.43189 -0.19476,-2.66482 1.18816,-4.12995 l 1.40228,-1.48564 0.009,2.30275 c 0.006,1.52544 -0.17656,2.56742 -0.54035,3.08681 -0.6381,0.91101 -1.74925,1.03299 -2.05891,0.22603 z m 12.13308,2.00344 c 0,-0.27936 -0.27781,-0.81439 -0.61736,-1.18895 -0.50816,-0.56058 -0.63758,-1.50553 -0.73168,-5.34238 l -0.11431,-4.66133 1.0496,-1.1236 c 1.07226,-1.14786 1.64535,-1.33852 2.46363,-0.81957 0.64958,0.41195 1.17122,4.66703 1.05061,8.56997 -0.0937,3.03189 -0.16566,3.32481 -0.89563,3.64507 -0.43656,0.19153 -0.79375,0.54871 -0.79375,0.79375 0,0.3217 0.78429,0.44551 2.82222,0.44551 2.21446,0 2.82223,-0.10884 2.82223,-0.50539 0,-0.27797 -0.3175,-0.60617 -0.70556,-0.72933 -0.66523,-0.21114 -0.70555,-0.53377 -0.70555,-5.64526 0,-2.98402 -0.16917,-5.86779 -0.37628,-6.41442 -1.04549,-2.75936 -3.28431,-3.37168 -5.43228,-1.48573 l -1.247,1.09488 v -1.62405 c 0,-1.87449 -0.30868,-2.03838 -1.15159,-0.61144 -0.32899,0.55694 -1.0776,1.2112 -1.66357,1.45391 -1.24065,0.51391 -1.34586,1.13359 -0.35984,2.11961 0.63695,0.63695 0.70556,1.17592 0.70556,5.543 0,4.81541 -0.004,4.84084 -0.93886,5.58605 -0.51636,0.41174 -0.84794,0.89395 -0.73683,1.07159 0.11111,0.17763 1.40671,0.32591 2.87913,0.3295 2.09772,0.005 2.67711,-0.10339 2.67711,-0.50139 z m -0.32959,-27.21062 c 0.3753,-0.20085 0.68237,-0.5501 0.68237,-0.77611 0,-0.30581 -0.10828,-0.30264 -0.42333,0.0124 -0.6708,0.6708 -2.32537,0.51434 -2.73926,-0.25903 -0.83751,-1.56491 -0.0105,-4.25652 1.30777,-4.25652 0.31604,0 0.94204,0.34517 1.39111,0.76705 l 0.81649,0.76705 v -0.74544 c 0,-0.61014 -0.2808,-0.78754 -1.54716,-0.97744 -1.9354,-0.29023 -2.9376,0.21281 -3.60466,1.8093 -0.44604,1.06753 -0.44031,1.33791 0.0483,2.28286 0.79723,1.54167 2.61185,2.15536 4.06833,1.37587 z m -37.703443,-1.22231 c -0.13718,-1.17499 0.32486,-1.67498 0.81499,-0.88194 0.43767,0.70816 0.88194,0.3252 0.88194,-0.76023 0,-1.05592 -0.0331,-1.08306 -0.64514,-0.52917 -0.94044,0.85109 -1.17703,0.72465 -1.05291,-0.56268 0.0962,-0.99787 0.22491,-1.13073 0.9925,-1.02468 0.48506,0.067 0.93518,0.26644 1.00026,0.44317 0.0651,0.17672 0.25659,0.23587 0.42557,0.13143 0.16898,-0.10443 0.21781,-0.42292 0.10852,-0.70775 -0.14224,-0.37065 -0.76466,-0.51787 -2.18946,-0.51787 h -1.99073 v 2.82222 c 0,2.78971 0.0104,2.82223 0.8993,2.82223 0.82005,0 0.8866,-0.10882 0.75516,-1.23473 z m 5.09732,0.61736 c -0.0769,-0.96861 1.88418,-1.07347 2.13505,-0.11415 0.13316,0.50921 0.47686,0.73152 1.13099,0.73152 h 0.9397 l -1.24543,-2.64464 c -0.68498,-1.45455 -1.33079,-2.64518 -1.43514,-2.64584 -0.10434,-6.7e-4 -0.74686,1.18943 -1.42782,2.64464 -1.04231,2.22744 -1.14403,2.64584 -0.64323,2.64584 0.35003,0 0.57471,-0.25411 0.54588,-0.61737 z m 0.54249,-1.69432 c 0.15956,-0.76628 0.78565,-0.81316 0.92885,-0.0696 0.0744,0.38615 -0.0987,0.61736 -0.46201,0.61736 -0.33892,0 -0.53339,-0.22819 -0.46684,-0.5478 z m 7.06848,1.25335 c -0.0881,-0.60007 0.004,-1.05833 0.21347,-1.05833 0.20283,0 0.707913,0.47625 1.122393,1.05833 0.49612,0.69673 1.05744,1.05834 1.64289,1.05834 h 0.88928 l -0.92785,-1.10269 c -0.84339,-1.0023 -0.87835,-1.15737 -0.38414,-1.70347 1.26708,-1.40011 -0.003,-2.83829 -2.506533,-2.83829 h -1.48215 l -0.11505,2.82305 -0.11506,2.82305 0.90904,-8.1e-4 c 0.80925,-7.4e-4 0.89199,-0.11701 0.75371,-1.05916 z m 0.17213,-1.98688 c -0.308,-0.308 -0.32511,-1.69834 -0.0246,-1.99885 0.46016,-0.46016 1.583463,0.50897 1.474333,1.27197 -0.10908,0.76263 -0.978213,1.1984 -1.449723,0.72688 z m 5.814013,1.67296 c -0.25131,-2.63525 0.1199,-2.81759 1.1564,-0.56802 l 0.97526,2.11666 0.84237,-1.89732 c 0.4633,-1.04353 0.82941,-2.0754 0.81358,-2.29306 -0.0158,-0.21765 -0.26441,0.14473 -0.55241,0.80529 l -0.52364,1.20102 -0.84247,-1.81838 c -0.65637,-1.41672 -1.02138,-1.81838 -1.65245,-1.81838 -0.77728,0 -0.80997,0.1139 -0.80997,2.82222 0,1.69474 0.14466,2.82223 0.3621,2.82223 0.20798,0 0.3064,-0.58406 0.23123,-1.37226 z m 5.75667,-1.46489 c 0,-2.81367 -0.007,-2.83629 -0.87603,-2.73403 -0.848,0.0998 -0.87622,0.19056 -0.88194,2.8361 -0.006,2.68129 0.0108,2.733 0.87602,2.73403 0.86772,0.001 0.88195,-0.0447 0.88195,-2.8361 z m 3.10082,2.13159 c -0.15621,-0.59735 -0.0108,-0.70556 0.94799,-0.70556 0.83582,0 1.18084,0.18484 1.31701,0.70556 0.11762,0.44977 0.4812,0.70556 1.00288,0.70556 h 0.81836 l -1.10679,-2.65161 c -0.60873,-1.45838 -1.23172,-2.60931 -1.38442,-2.55763 -0.15271,0.0517 -0.82899,1.2449 -1.50284,2.6516 -1.09929,2.29484 -1.1575,2.55764 -0.56643,2.55764 0.48506,0 0.6101,-0.18603 0.47424,-0.70556 z m 0.60333,-1.56668 c 0,-0.74634 0.59716,-0.98854 0.84498,-0.34272 0.30172,0.78627 0.27767,0.85107 -0.31581,0.85107 -0.29104,0 -0.52917,-0.22876 -0.52917,-0.50835 z m 14.2875,-0.54999 c 0,-2.7751 -0.0147,-2.82222 -0.88194,-2.82252 -0.86726,-3e-4 -0.88195,0.0467 -0.88195,2.82146 0,2.77449 0.0148,2.82177 0.88195,2.82252 0.86731,7.4e-4 0.88194,-0.0461 0.88194,-2.82146 z m 2.95684,2.55764 c -0.13369,-0.84669 0.15401,-1.14653 1.10011,-1.14653 0.94609,0 1.2338,0.29984 1.10011,1.14653 -0.023,0.14552 0.42613,0.26459 0.99802,0.26459 h 1.0398 l -1.09278,-2.38125 c -0.60103,-1.30969 -1.21483,-2.5192 -1.364,-2.68781 -0.26795,-0.30287 -1.14001,1.17476 -2.21088,3.74614 -0.47348,1.13692 -0.47907,1.32292 -0.0398,1.32292 0.28114,0 0.49236,-0.11907 0.46939,-0.26459 z m 0.39995,-1.76389 c 0.003,-0.14552 0.16172,-0.5027 0.35278,-0.79375 0.30878,-0.47037 0.38597,-0.47037 0.69475,0 0.52068,0.79316 0.43364,1.05834 -0.34737,1.05834 -0.38806,0 -0.70313,-0.11907 -0.70016,-0.26459 z"
       id="path826"
       inkscape:connector-curvature="0"
       inkscape:export-xdpi="95"
       inkscape:export-ydpi="95" />
  </g>
</svg>
